<svg xmlns="http://www.w3.org/2000/svg" width="1200" height="578" viewBox="0 0 1200 578" role="img">
<rect width="100%" height="100%" fill="white" />
<text x="600.0" y="36" text-anchor="middle" font-size="24" font-family="Arial, sans-serif" fill="#111">Coefficient of variation leaderboard</text>
<text x="740.0" y="560" text-anchor="middle" font-size="15" font-family="Arial, sans-serif" fill="#333">Coefficient of variation</text>
<rect x="840" y="20" width="18" height="18" rx="3" fill="#10a37f" />
<text x="866" y="34" font-size="14" font-family="Arial, sans-serif" fill="#222">OpenAI</text>
<rect x="950" y="20" width="18" height="18" rx="3" fill="#4285f4" />
<text x="976" y="34" font-size="14" font-family="Arial, sans-serif" fill="#222">Google</text>
<rect x="1060" y="20" width="18" height="18" rx="3" fill="#f28c28" />
<text x="1086" y="34" font-size="14" font-family="Arial, sans-serif" fill="#222">Mistral</text>
<line x1="430.00" y1="90" x2="430.00" y2="508" stroke="#dddddd" stroke-width="1" />
<text x="430.00" y="532" text-anchor="middle" font-size="12" font-family="Arial, sans-serif" fill="#555">0.00</text>
<line x1="554.00" y1="90" x2="554.00" y2="508" stroke="#dddddd" stroke-width="1" />
<text x="554.00" y="532" text-anchor="middle" font-size="12" font-family="Arial, sans-serif" fill="#555">1.03</text>
<line x1="678.00" y1="90" x2="678.00" y2="508" stroke="#dddddd" stroke-width="1" />
<text x="678.00" y="532" text-anchor="middle" font-size="12" font-family="Arial, sans-serif" fill="#555">2.06</text>
<line x1="802.00" y1="90" x2="802.00" y2="508" stroke="#dddddd" stroke-width="1" />
<text x="802.00" y="532" text-anchor="middle" font-size="12" font-family="Arial, sans-serif" fill="#555">3.09</text>
<line x1="926.00" y1="90" x2="926.00" y2="508" stroke="#dddddd" stroke-width="1" />
<text x="926.00" y="532" text-anchor="middle" font-size="12" font-family="Arial, sans-serif" fill="#555">4.11</text>
<line x1="1050.00" y1="90" x2="1050.00" y2="508" stroke="#dddddd" stroke-width="1" />
<text x="1050.00" y="532" text-anchor="middle" font-size="12" font-family="Arial, sans-serif" fill="#555">5.14</text>
<line x1="430" y1="508" x2="1050" y2="508" stroke="#999" stroke-width="1.5" />
<rect x="430" y="97" width="525.42" height="24" rx="4" fill="#10a37f" />
<text x="418" y="114" text-anchor="end" font-size="14" font-family="Arial, sans-serif" fill="#222">openai/gpt-5.4-mini (low)</text>
<text x="963.42" y="114" font-size="13" font-family="Arial, sans-serif" fill="#222">4.3589</text>
<rect x="430" y="135" width="243.94" height="24" rx="4" fill="#4285f4" />
<text x="418" y="152" text-anchor="end" font-size="14" font-family="Arial, sans-serif" fill="#222">google/gemini-3.1-pro-preview (low)</text>
<text x="681.94" y="152" font-size="13" font-family="Arial, sans-serif" fill="#222">2.0237</text>
<rect x="430" y="173" width="173.60" height="24" rx="4" fill="#10a37f" />
<text x="418" y="190" text-anchor="end" font-size="14" font-family="Arial, sans-serif" fill="#222">openai/gpt-5.2 (low)</text>
<text x="611.60" y="190" font-size="13" font-family="Arial, sans-serif" fill="#222">1.4402</text>
<rect x="430" y="211" width="138.74" height="24" rx="4" fill="#f28c28" />
<text x="418" y="228" text-anchor="end" font-size="14" font-family="Arial, sans-serif" fill="#222">mistral/mistral-large-latest (default)</text>
<text x="576.74" y="228" font-size="13" font-family="Arial, sans-serif" fill="#222">1.1510</text>
<rect x="430" y="249" width="90.01" height="24" rx="4" fill="#4285f4" />
<text x="418" y="266" text-anchor="end" font-size="14" font-family="Arial, sans-serif" fill="#222">google/gemini-3-flash-preview (low)</text>
<text x="528.01" y="266" font-size="13" font-family="Arial, sans-serif" fill="#222">0.7467</text>
<rect x="430" y="287" width="82.24" height="24" rx="4" fill="#10a37f" />
<text x="418" y="304" text-anchor="end" font-size="14" font-family="Arial, sans-serif" fill="#222">openai/gpt-5.4-mini (xhigh)</text>
<text x="520.24" y="304" font-size="13" font-family="Arial, sans-serif" fill="#222">0.6823</text>
<rect x="430" y="325" width="79.15" height="24" rx="4" fill="#4285f4" />
<text x="418" y="342" text-anchor="end" font-size="14" font-family="Arial, sans-serif" fill="#222">google/gemini-3-flash-preview (high)</text>
<text x="517.15" y="342" font-size="13" font-family="Arial, sans-serif" fill="#222">0.6566</text>
<rect x="430" y="363" width="72.04" height="24" rx="4" fill="#10a37f" />
<text x="418" y="380" text-anchor="end" font-size="14" font-family="Arial, sans-serif" fill="#222">openai/gpt-5.4 (low)</text>
<text x="510.04" y="380" font-size="13" font-family="Arial, sans-serif" fill="#222">0.5976</text>
<rect x="430" y="401" width="49.28" height="24" rx="4" fill="#10a37f" />
<text x="418" y="418" text-anchor="end" font-size="14" font-family="Arial, sans-serif" fill="#222">openai/gpt-5.2 (xhigh)</text>
<text x="487.28" y="418" font-size="13" font-family="Arial, sans-serif" fill="#222">0.4089</text>
<rect x="430" y="439" width="46.48" height="24" rx="4" fill="#10a37f" />
<text x="418" y="456" text-anchor="end" font-size="14" font-family="Arial, sans-serif" fill="#222">openai/gpt-5.4 (xhigh)</text>
<text x="484.48" y="456" font-size="13" font-family="Arial, sans-serif" fill="#222">0.3856</text>
<rect x="430" y="477" width="19.34" height="24" rx="4" fill="#4285f4" />
<text x="418" y="494" text-anchor="end" font-size="14" font-family="Arial, sans-serif" fill="#222">google/gemini-3.1-pro-preview (high)</text>
<text x="457.34" y="494" font-size="13" font-family="Arial, sans-serif" fill="#222">0.1604</text>
</svg>