<svg xmlns="http://www.w3.org/2000/svg" width="1280" height="760" viewBox="0 0 1280 760" role="img">
<rect width="100%" height="100%" fill="white" />
<text x="640.0" y="36" text-anchor="middle" font-size="24" font-family="Arial, sans-serif" fill="#111">Pareto frontier: mean score vs mean time</text>
<text x="640.0" y="58" text-anchor="middle" font-size="14" font-family="Arial, sans-serif" fill="#444">Configurations on the frontier maximize score while minimizing mean runtime across 20 trajectories.</text>
<text x="640.0" y="742" text-anchor="middle" font-size="15" font-family="Arial, sans-serif" fill="#333">Mean time (s)</text>
<text x="24" y="380.0" text-anchor="middle" transform="rotate(-90, 24, 380.0)" font-size="15" font-family="Arial, sans-serif" fill="#333">Mean score</text>
<rect x="920" y="20" width="18" height="18" rx="3" fill="#10a37f" />
<text x="946" y="34" font-size="14" font-family="Arial, sans-serif" fill="#222">OpenAI</text>
<rect x="1030" y="20" width="18" height="18" rx="3" fill="#4285f4" />
<text x="1056" y="34" font-size="14" font-family="Arial, sans-serif" fill="#222">Google</text>
<rect x="1140" y="20" width="18" height="18" rx="3" fill="#f28c28" />
<text x="1166" y="34" font-size="14" font-family="Arial, sans-serif" fill="#222">Mistral</text>
<line x1="80.00" y1="85" x2="80.00" y2="675" stroke="#eeeeee" stroke-width="1" />
<text x="80.00" y="697" text-anchor="middle" font-size="12" font-family="Arial, sans-serif" fill="#555">0</text>
<line x1="310.00" y1="85" x2="310.00" y2="675" stroke="#eeeeee" stroke-width="1" />
<text x="310.00" y="697" text-anchor="middle" font-size="12" font-family="Arial, sans-serif" fill="#555">412</text>
<line x1="540.00" y1="85" x2="540.00" y2="675" stroke="#eeeeee" stroke-width="1" />
<text x="540.00" y="697" text-anchor="middle" font-size="12" font-family="Arial, sans-serif" fill="#555">825</text>
<line x1="770.00" y1="85" x2="770.00" y2="675" stroke="#eeeeee" stroke-width="1" />
<text x="770.00" y="697" text-anchor="middle" font-size="12" font-family="Arial, sans-serif" fill="#555">1237</text>
<line x1="1000.00" y1="85" x2="1000.00" y2="675" stroke="#eeeeee" stroke-width="1" />
<text x="1000.00" y="697" text-anchor="middle" font-size="12" font-family="Arial, sans-serif" fill="#555">1649</text>
<line x1="1230.00" y1="85" x2="1230.00" y2="675" stroke="#eeeeee" stroke-width="1" />
<text x="1230.00" y="697" text-anchor="middle" font-size="12" font-family="Arial, sans-serif" fill="#555">2062</text>
<line x1="80" y1="675.00" x2="1230" y2="675.00" stroke="#eeeeee" stroke-width="1" />
<text x="72" y="679.00" text-anchor="end" font-size="12" font-family="Arial, sans-serif" fill="#555">0.00</text>
<line x1="80" y1="557.00" x2="1230" y2="557.00" stroke="#eeeeee" stroke-width="1" />
<text x="72" y="561.00" text-anchor="end" font-size="12" font-family="Arial, sans-serif" fill="#555">0.15</text>
<line x1="80" y1="439.00" x2="1230" y2="439.00" stroke="#eeeeee" stroke-width="1" />
<text x="72" y="443.00" text-anchor="end" font-size="12" font-family="Arial, sans-serif" fill="#555">0.30</text>
<line x1="80" y1="321.00" x2="1230" y2="321.00" stroke="#eeeeee" stroke-width="1" />
<text x="72" y="325.00" text-anchor="end" font-size="12" font-family="Arial, sans-serif" fill="#555">0.45</text>
<line x1="80" y1="203.00" x2="1230" y2="203.00" stroke="#eeeeee" stroke-width="1" />
<text x="72" y="207.00" text-anchor="end" font-size="12" font-family="Arial, sans-serif" fill="#555">0.59</text>
<line x1="80" y1="85.00" x2="1230" y2="85.00" stroke="#eeeeee" stroke-width="1" />
<text x="72" y="89.00" text-anchor="end" font-size="12" font-family="Arial, sans-serif" fill="#555">0.74</text>
<rect x="80" y="85" width="1150" height="590" fill="none" stroke="#bbbbbb" stroke-width="1" />
<polyline points="120.07,673.37 172.32,582.65 203.98,535.30 362.43,376.24 438.58,362.51 488.46,348.59 728.23,164.85 906.00,138.49" fill="none" stroke="#111111" stroke-width="2.5" stroke-dasharray="8 5" />
<circle cx="362.43" cy="376.24" r="7.5" fill="#4285f4" fill-opacity="1.0" stroke="#111111" stroke-width="1.2" />
<text x="372.43" y="376.24" dominant-baseline="middle" font-size="12" font-family="Arial, sans-serif" fill="#222">google/gemini-3-flash-preview (low)</text>
<circle cx="488.46" cy="348.59" r="7.5" fill="#4285f4" fill-opacity="1.0" stroke="#111111" stroke-width="1.2" />
<text x="498.46" y="348.59" dominant-baseline="middle" font-size="12" font-family="Arial, sans-serif" fill="#222">google/gemini-3-flash-preview (high)</text>
<circle cx="172.32" cy="582.65" r="7.5" fill="#4285f4" fill-opacity="1.0" stroke="#111111" stroke-width="1.2" />
<text x="182.32" y="582.65" dominant-baseline="middle" font-size="12" font-family="Arial, sans-serif" fill="#222">google/gemini-3.1-pro-preview (low)</text>
<circle cx="728.23" cy="164.85" r="7.5" fill="#4285f4" fill-opacity="1.0" stroke="#111111" stroke-width="1.2" />
<text x="738.23" y="164.85" dominant-baseline="middle" font-size="12" font-family="Arial, sans-serif" fill="#222">google/gemini-3.1-pro-preview (high)</text>
<circle cx="465.18" cy="497.64" r="6" fill="#f28c28" fill-opacity="0.55" stroke="none" stroke-width="0" />
<text x="475.18" y="497.64" dominant-baseline="middle" font-size="12" font-family="Arial, sans-serif" fill="#222">mistral/mistral-large-latest (default)</text>
<circle cx="203.98" cy="535.30" r="7.5" fill="#10a37f" fill-opacity="1.0" stroke="#111111" stroke-width="1.2" />
<text x="213.98" y="535.30" dominant-baseline="middle" font-size="12" font-family="Arial, sans-serif" fill="#222">openai/gpt-5.2 (low)</text>
<circle cx="1147.78" cy="198.82" r="6" fill="#10a37f" fill-opacity="0.55" stroke="none" stroke-width="0" />
<text x="1157.78" y="198.82" dominant-baseline="middle" font-size="12" font-family="Arial, sans-serif" fill="#222">openai/gpt-5.2 (xhigh)</text>
<circle cx="438.58" cy="362.51" r="7.5" fill="#10a37f" fill-opacity="1.0" stroke="#111111" stroke-width="1.2" />
<text x="448.58" y="362.51" dominant-baseline="middle" font-size="12" font-family="Arial, sans-serif" fill="#222">openai/gpt-5.4 (low)</text>
<circle cx="906.00" cy="138.49" r="7.5" fill="#10a37f" fill-opacity="1.0" stroke="#111111" stroke-width="1.2" />
<text x="916.00" y="138.49" dominant-baseline="middle" font-size="12" font-family="Arial, sans-serif" fill="#222">openai/gpt-5.4 (xhigh)</text>
<circle cx="120.07" cy="673.37" r="7.5" fill="#10a37f" fill-opacity="1.0" stroke="#111111" stroke-width="1.2" />
<text x="130.07" y="673.37" dominant-baseline="middle" font-size="12" font-family="Arial, sans-serif" fill="#222">openai/gpt-5.4-mini (low)</text>
<circle cx="888.61" cy="364.59" r="6" fill="#10a37f" fill-opacity="0.55" stroke="none" stroke-width="0" />
<text x="898.61" y="364.59" dominant-baseline="middle" font-size="12" font-family="Arial, sans-serif" fill="#222">openai/gpt-5.4-mini (xhigh)</text>
</svg>